<?xml version="1.0" encoding="us-ascii" standalone="no"?><svg xmlns="http://www.w3.org/2000/svg" xmlns:xlink="http://www.w3.org/1999/xlink" contentStyleType="text/css" height="373px" preserveAspectRatio="none" style="width:413px;height:373px;background:#FFFFFF;" version="1.1" viewBox="0 0 413 373" width="413px" zoomAndPan="magnify"><defs/><g><line style="stroke:#EEEEEE;stroke-width:0.5;stroke-dasharray:5.0,5.0;" x1="27" x2="27" y1="86.9688" y2="286.8125"/><line style="stroke:#EEEEEE;stroke-width:0.5;stroke-dasharray:5.0,5.0;" x1="150.5" x2="150.5" y1="86.9688" y2="286.8125"/><line style="stroke:#EEEEEE;stroke-width:0.5;stroke-dasharray:5.0,5.0;" x1="207.5" x2="207.5" y1="86.9688" y2="286.8125"/><line style="stroke:#EEEEEE;stroke-width:0.5;stroke-dasharray:5.0,5.0;" x1="262.5" x2="262.5" y1="86.9688" y2="286.8125"/><line style="stroke:#EEEEEE;stroke-width:0.5;stroke-dasharray:5.0,5.0;" x1="317.5" x2="317.5" y1="86.9688" y2="286.8125"/><line style="stroke:#EEEEEE;stroke-width:0.5;stroke-dasharray:5.0,5.0;" x1="378.5" x2="378.5" y1="86.9688" y2="286.8125"/><text fill="#EEEEEE" font-family="sans-serif" font-size="12" lengthAdjust="spacing" textLength="30" x="9" y="80.1387">Foo1</text><ellipse cx="27" cy="13.5" fill="#1A618C" rx="8" ry="8" style="stroke:#EEEEEE;stroke-width:0.5;"/><path d="M27,21.5 L27,48.5 M14,29.5 L40,29.5 M27,48.5 L14,63.5 M27,48.5 L40,63.5 " fill="none" style="stroke:#EEEEEE;stroke-width:0.5;"/><text fill="#EEEEEE" font-family="sans-serif" font-size="12" lengthAdjust="spacing" textLength="30" x="9" y="300.9512">Foo1</text><ellipse cx="27" cy="316.2813" fill="#1A618C" rx="8" ry="8" style="stroke:#EEEEEE;stroke-width:0.5;"/><path d="M27,324.2813 L27,351.2813 M14,332.2813 L40,332.2813 M27,351.2813 L14,366.2813 M27,351.2813 L40,366.2813 " fill="none" style="stroke:#EEEEEE;stroke-width:0.5;"/><text fill="#EEEEEE" font-family="sans-serif" font-size="12" lengthAdjust="spacing" textLength="31" x="132.5" y="80.1387">Foo2</text><path d="M130.5,37 L130.5,61 M130.5,49 L147.5,49 " fill="none" style="stroke:#EEEEEE;stroke-width:0.5;"/><ellipse cx="159.5" cy="49" fill="#1A618C" rx="12" ry="12" style="stroke:#EEEEEE;stroke-width:0.5;"/><text fill="#EEEEEE" font-family="sans-serif" font-size="12" lengthAdjust="spacing" textLength="31" x="132.5" y="300.9512">Foo2</text><path d="M130.5,311.7813 L130.5,335.7813 M130.5,323.7813 L147.5,323.7813 " fill="none" style="stroke:#EEEEEE;stroke-width:0.5;"/><ellipse cx="159.5" cy="323.7813" fill="#1A618C" rx="12" ry="12" style="stroke:#EEEEEE;stroke-width:0.5;"/><text fill="#EEEEEE" font-family="sans-serif" font-size="12" lengthAdjust="spacing" textLength="31" x="189.5" y="80.1387">Foo3</text><ellipse cx="208" cy="49" fill="#1A618C" rx="12" ry="12" style="stroke:#EEEEEE;stroke-width:0.5;"/><polygon fill="#EEEEEE" points="204,37,210,32,208,37,210,42,204,37" style="stroke:#EEEEEE;stroke-width:1.0;"/><text fill="#EEEEEE" font-family="sans-serif" font-size="12" lengthAdjust="spacing" textLength="31" x="189.5" y="300.9512">Foo3</text><ellipse cx="208" cy="323.7813" fill="#1A618C" rx="12" ry="12" style="stroke:#EEEEEE;stroke-width:0.5;"/><polygon fill="#EEEEEE" points="204,311.7813,210,306.7813,208,311.7813,210,316.7813,204,311.7813" style="stroke:#EEEEEE;stroke-width:1.0;"/><text fill="#EEEEEE" font-family="sans-serif" font-size="12" lengthAdjust="spacing" textLength="31" x="244.5" y="80.1387">Foo4</text><ellipse cx="263" cy="49" fill="#1A618C" rx="12" ry="12" style="stroke:#EEEEEE;stroke-width:0.5;"/><line style="stroke:#EEEEEE;stroke-width:0.5;" x1="251" x2="275" y1="63" y2="63"/><text fill="#EEEEEE" font-family="sans-serif" font-size="12" lengthAdjust="spacing" textLength="31" x="244.5" y="300.9512">Foo4</text><ellipse cx="263" cy="323.7813" fill="#1A618C" rx="12" ry="12" style="stroke:#EEEEEE;stroke-width:0.5;"/><line style="stroke:#EEEEEE;stroke-width:0.5;" x1="251" x2="275" y1="337.7813" y2="337.7813"/><text fill="#EEEEEE" font-family="sans-serif" font-size="12" lengthAdjust="spacing" textLength="31" x="299.5" y="80.1387">Foo5</text><path d="M300,29 C300,19 318,19 318,19 C318,19 336,19 336,29 L336,55 C336,65 318,65 318,65 C318,65 300,65 300,55 L300,29 " fill="#1A618C" style="stroke:#EEEEEE;stroke-width:1.5;"/><path d="M300,29 C300,39 318,39 318,39 C318,39 336,39 336,29 " fill="none" style="stroke:#EEEEEE;stroke-width:1.5;"/><text fill="#EEEEEE" font-family="sans-serif" font-size="12" lengthAdjust="spacing" textLength="31" x="299.5" y="300.9512">Foo5</text><path d="M300,317.7813 C300,307.7813 318,307.7813 318,307.7813 C318,307.7813 336,307.7813 336,317.7813 L336,343.7813 C336,353.7813 318,353.7813 318,353.7813 C318,353.7813 300,353.7813 300,343.7813 L300,317.7813 " fill="#1A618C" style="stroke:#EEEEEE;stroke-width:1.5;"/><path d="M300,317.7813 C300,327.7813 318,327.7813 318,327.7813 C318,327.7813 336,327.7813 336,317.7813 " fill="none" style="stroke:#EEEEEE;stroke-width:1.5;"/><rect fill="#1A618C" height="35.9688" rx="2" ry="2" style="stroke:#EEEEEE;stroke-width:0.5;" width="53" x="354.5" y="46"/><rect fill="#1A618C" height="35.9688" rx="2" ry="2" style="stroke:#EEEEEE;stroke-width:0.5;" width="53" x="350.5" y="50"/><text fill="#EEEEEE" font-family="sans-serif" font-size="12" lengthAdjust="spacing" textLength="31" x="361.5" y="72.1387">Foo6</text><rect fill="#1A618C" height="35.9688" rx="2" ry="2" style="stroke:#EEEEEE;stroke-width:0.5;" width="53" x="354.5" y="285.8125"/><rect fill="#1A618C" height="35.9688" rx="2" ry="2" style="stroke:#EEEEEE;stroke-width:0.5;" width="53" x="350.5" y="289.8125"/><text fill="#EEEEEE" font-family="sans-serif" font-size="12" lengthAdjust="spacing" textLength="31" x="361.5" y="311.9512">Foo6</text><polygon fill="#EEEEEE" points="139,120.9375,149,124.9375,139,128.9375,143,124.9375" style="stroke:#EEEEEE;stroke-width:1.0;"/><line style="stroke:#EEEEEE;stroke-width:3.0;" x1="27" x2="145" y1="124.9375" y2="124.9375"/><text fill="#EEEEEE" font-family="sans-serif" font-size="12" font-weight="bold" lengthAdjust="spacing" textLength="92" x="38" y="116.1074">To boundary</text><polygon fill="#EEEEEE" points="196,156.9063,206,160.9063,196,164.9063,200,160.9063" style="stroke:#EEEEEE;stroke-width:1.0;"/><line style="stroke:#EEEEEE;stroke-width:3.0;" x1="27" x2="202" y1="160.9063" y2="160.9063"/><text fill="#EEEEEE" font-family="sans-serif" font-size="12" font-weight="bold" lengthAdjust="spacing" textLength="76" x="38" y="152.0762">To control</text><polygon fill="#EEEEEE" points="251,192.875,261,196.875,251,200.875,255,196.875" style="stroke:#EEEEEE;stroke-width:1.0;"/><line style="stroke:#EEEEEE;stroke-width:3.0;" x1="27" x2="257" y1="196.875" y2="196.875"/><text fill="#EEEEEE" font-family="sans-serif" font-size="12" font-weight="bold" lengthAdjust="spacing" textLength="67" x="38" y="188.0449">To entity</text><polygon fill="#EEEEEE" points="306,228.8438,316,232.8438,306,236.8438,310,232.8438" style="stroke:#EEEEEE;stroke-width:1.0;"/><line style="stroke:#EEEEEE;stroke-width:3.0;" x1="27" x2="312" y1="232.8438" y2="232.8438"/><text fill="#EEEEEE" font-family="sans-serif" font-size="12" font-weight="bold" lengthAdjust="spacing" textLength="92" x="38" y="224.0137">To database</text><polygon fill="#EEEEEE" points="367,264.8125,377,268.8125,367,272.8125,371,268.8125" style="stroke:#EEEEEE;stroke-width:1.0;"/><line style="stroke:#EEEEEE;stroke-width:3.0;" x1="27" x2="373" y1="268.8125" y2="268.8125"/><text fill="#EEEEEE" font-family="sans-serif" font-size="12" font-weight="bold" lengthAdjust="spacing" textLength="102" x="38" y="259.9824">To collections</text><!--SRC=[rLPDSzem4BthLsp28PTs9YI4f9rCPi0XQIOKCfXBJnbXBLY3B55PXD9E_tjb6x1C-4Wp-12TBEtglRShMRj738TS8ZJldxyt7ZhFNhVTxK4wAjL6lNhbaQFSnMzvtSvje_TZuLUfL-kNzIlNvQdXFJRkMokWoYKzE_qop5swlTjMp-M1IYiTAvUxRgTVSCXT23a1BWCnPGWcH1YXH4q5n6Ck9rJJA8QXqZ1G9lm4Wez20rGoO5IFxKwZGBsWdcbk46RSX1a6Vq49CHh3vIXU5zh_zk0zTbg-3-U4h6ZWYJ9ctQ7chFNKL39FQIkfiEw7bAbPuZsa8aONvXQ7T2eC_24dTqgQ3eqGZhiJgyUdCWOV8pvGWXsJnEefOMFBivCk-lmtGlMC_7LX6rghcGNTk6CpZ9aB6xFbAY9DQ32c8xHO6xSshNcaixWJK-4QaQRI3FN2ufoxfSWPf6B_0r-uNszZ25GqKH9bakPt2jweBilPD19hsMVKq06DyS1q1Ov0g2ahbK09WO7Xobx3GzFaB9vrq4gKoD1C8AcUbqZHaeQRCWcuDAY7DC0IENpyEKKPu1FLXWTyGgN9mFeX3yOIuzW-WBbxl72tYjmTEyMzWjwWq_79doMfT4J5kkrLE6q-nBPzkhU2hnnsoamVprVWwUfMvDIwKLHgSNFO28pIUnIaBbkv4kks7_W4l1eaMRFbnaugUuVxpslxmrCv4dXzFK4TAtbpOy_NjvSFbPbFS6lrE5HTMBznwpMu-4GvSl6N5IcfU3wyxhMUfmJnyJms67syN1zUTqcvNXRaZv7gNEt7oxHpJGQBmfkfNck1Yr6aFUpf_cxlNR7l3YmhC8p68RAtnBenrC0IKrjNz5jZhTRsNAKI8jrzX8GcLGNkbAgIvSabipCIB5eqEpadcBKwzhj6LcskdLqGjr-q2tMIGC7dcnG4la9VmHBNDPrdfWM9QwbbbepHDLnaXYMzQwelqLPQ_W40]--></g></svg>