<?xml version="1.0" encoding="us-ascii" standalone="no"?><svg xmlns="http://www.w3.org/2000/svg" xmlns:xlink="http://www.w3.org/1999/xlink" contentStyleType="text/css" height="674px" preserveAspectRatio="none" style="width:535px;height:674px;background:#003153;" version="1.1" viewBox="0 0 535 674" width="535px" zoomAndPan="magnify"><defs/><g><rect fill="#003153" height="674" style="stroke:none;stroke-width:1.0;" width="535" x="0" y="0"/><ellipse cx="247" cy="15" fill="#003153" rx="10" ry="10" style="stroke:#D9D3D0;stroke-width:1.0;"/><rect fill="#003153" height="33.9688" rx="12.5" ry="12.5" style="stroke:#D9D3D0;stroke-width:1.0;" width="111" x="191.5" y="45"/><text fill="#D9D3D0" font-family="Verdana" font-size="12" lengthAdjust="spacing" textLength="91" x="201.5" y="66.1387">commit to Main</text><rect fill="#003153" height="33.9688" rx="12.5" ry="12.5" style="stroke:#D9D3D0;stroke-width:1.0;" width="97" x="198.5" y="120.3677"/><text fill="#D9D3D0" font-family="Verdana" font-size="12" lengthAdjust="spacing" textLength="77" x="208.5" y="141.5063">Orchestrator</text><rect fill="#D9D3D0" height="6" rx="2.5" ry="2.5" style="stroke:#D9D3D0;stroke-width:1.0;" width="482" x="6" y="195.7354"/><rect fill="#003153" height="33.9688" rx="12.5" ry="12.5" style="stroke:#D9D3D0;stroke-width:1.0;" width="141" x="18" y="221.7354"/><text fill="#D9D3D0" font-family="Verdana" font-size="12" lengthAdjust="spacing" textLength="121" x="28" y="242.874">Run Testing pipeline</text><rect fill="#003153" height="33.9688" rx="12.5" ry="12.5" style="stroke:#D9D3D0;stroke-width:1.0;" width="135" x="187" y="221.7354"/><text fill="#D9D3D0" font-family="Verdana" font-size="12" lengthAdjust="spacing" textLength="115" x="197" y="242.874">Run Linting pipeline</text><rect fill="#003153" height="33.9688" rx="12.5" ry="12.5" style="stroke:#D9D3D0;stroke-width:1.0;" width="126" x="350" y="221.7354"/><text fill="#D9D3D0" font-family="Verdana" font-size="12" lengthAdjust="spacing" textLength="106" x="360" y="242.874">Run Build pipeline</text><rect fill="#D9D3D0" height="6" rx="2.5" ry="2.5" style="stroke:#D9D3D0;stroke-width:1.0;" width="482" x="6" y="288.5088"/><text fill="#D9D3D0" font-family="Verdana" font-size="11" lengthAdjust="spacing" textLength="35" x="493" y="292.3169">{and}</text><rect fill="#003153" height="33.9688" rx="12.5" ry="12.5" style="stroke:#D9D3D0;stroke-width:1.0;" width="145" x="174.5" y="314.5088"/><text fill="#D9D3D0" font-family="Verdana" font-size="12" lengthAdjust="spacing" textLength="125" x="184.5" y="335.6475">Run Release pipeline</text><rect fill="#003153" height="33.9688" rx="12.5" ry="12.5" style="stroke:#D9D3D0;stroke-width:1.0;" width="119" x="187.5" y="389.8765"/><text fill="#D9D3D0" font-family="Verdana" font-size="12" lengthAdjust="spacing" textLength="99" x="197.5" y="411.0151">Commit to 'main'</text><rect fill="#003153" height="33.9688" rx="12.5" ry="12.5" style="stroke:#D9D3D0;stroke-width:1.0;" width="68" x="213" y="465.2441"/><text fill="#D9D3D0" font-family="Verdana" font-size="12" lengthAdjust="spacing" textLength="48" x="223" y="486.3828">Release</text><rect fill="#D9D3D0" height="6" rx="2.5" ry="2.5" style="stroke:#D9D3D0;stroke-width:1.0;" width="413" x="40.5" y="540.6118"/><rect fill="#003153" height="33.9688" rx="12.5" ry="12.5" style="stroke:#D9D3D0;stroke-width:1.0;" width="187" x="54.5" y="566.6118"/><text fill="#D9D3D0" font-family="Verdana" font-size="12" lengthAdjust="spacing" textLength="167" x="64.5" y="587.7505">Run Documentation pipeline</text><rect fill="#003153" height="33.9688" rx="12.5" ry="12.5" style="stroke:#D9D3D0;stroke-width:1.0;" width="170" x="269.5" y="566.6118"/><text fill="#D9D3D0" font-family="Verdana" font-size="12" lengthAdjust="spacing" textLength="150" x="279.5" y="587.7505">Run Build &amp; Push pipeline</text><rect fill="#D9D3D0" height="6" rx="2.5" ry="2.5" style="stroke:#D9D3D0;stroke-width:1.0;" width="413" x="40.5" y="620.5806"/><ellipse cx="247" cy="657.5806" fill="none" rx="11" ry="11" style="stroke:#D9D3D0;stroke-width:1.0;"/><ellipse cx="247" cy="657.5806" fill="#003153" rx="6" ry="6" style="stroke:#D9D3D0;stroke-width:1.0;"/><line style="stroke:#D9D3D0;stroke-width:1.0;" x1="247" x2="247" y1="25" y2="45"/><polygon fill="#D9D3D0" points="243,35,247,45,251,35,247,39" style="stroke:#D9D3D0;stroke-width:1.0;"/><line style="stroke:#D9D3D0;stroke-width:1.0;" x1="247" x2="247" y1="78.9688" y2="120.3677"/><polygon fill="#D9D3D0" points="243,110.3677,247,120.3677,251,110.3677,247,114.3677" style="stroke:#D9D3D0;stroke-width:1.0;"/><text fill="#D9D3D0" font-family="Verdana" font-size="11" lengthAdjust="spacing" textLength="65" x="251" y="100.2734">push event</text><line style="stroke:#D9D3D0;stroke-width:1.0;" x1="88.5" x2="88.5" y1="201.7354" y2="221.7354"/><polygon fill="#D9D3D0" points="84.5,211.7354,88.5,221.7354,92.5,211.7354,88.5,215.7354" style="stroke:#D9D3D0;stroke-width:1.0;"/><line style="stroke:#D9D3D0;stroke-width:1.0;" x1="254.5" x2="254.5" y1="201.7354" y2="221.7354"/><polygon fill="#D9D3D0" points="250.5,211.7354,254.5,221.7354,258.5,211.7354,254.5,215.7354" style="stroke:#D9D3D0;stroke-width:1.0;"/><line style="stroke:#D9D3D0;stroke-width:1.0;" x1="413" x2="413" y1="201.7354" y2="221.7354"/><polygon fill="#D9D3D0" points="409,211.7354,413,221.7354,417,211.7354,413,215.7354" style="stroke:#D9D3D0;stroke-width:1.0;"/><line style="stroke:#D9D3D0;stroke-width:1.0;" x1="88.5" x2="88.5" y1="255.7041" y2="288.5088"/><polygon fill="#D9D3D0" points="84.5,278.5088,88.5,288.5088,92.5,278.5088,88.5,282.5088" style="stroke:#D9D3D0;stroke-width:1.0;"/><text fill="#D9D3D0" font-family="Verdana" font-size="11" lengthAdjust="spacing" textLength="45" x="92.5" y="275.9146">success</text><line style="stroke:#D9D3D0;stroke-width:1.0;" x1="254.5" x2="254.5" y1="255.7041" y2="288.5088"/><polygon fill="#D9D3D0" points="250.5,278.5088,254.5,288.5088,258.5,278.5088,254.5,282.5088" style="stroke:#D9D3D0;stroke-width:1.0;"/><text fill="#D9D3D0" font-family="Verdana" font-size="11" lengthAdjust="spacing" textLength="45" x="258.5" y="275.9146">success</text><line style="stroke:#D9D3D0;stroke-width:1.0;" x1="413" x2="413" y1="255.7041" y2="288.5088"/><polygon fill="#D9D3D0" points="409,278.5088,413,288.5088,417,278.5088,413,282.5088" style="stroke:#D9D3D0;stroke-width:1.0;"/><text fill="#D9D3D0" font-family="Verdana" font-size="11" lengthAdjust="spacing" textLength="45" x="417" y="275.9146">success</text><line style="stroke:#D9D3D0;stroke-width:1.0;" x1="247" x2="247" y1="154.3364" y2="195.7354"/><polygon fill="#D9D3D0" points="243,185.7354,247,195.7354,251,185.7354,247,189.7354" style="stroke:#D9D3D0;stroke-width:1.0;"/><text fill="#D9D3D0" font-family="Verdana" font-size="11" lengthAdjust="spacing" textLength="36" x="251" y="175.6411">calling</text><line style="stroke:#D9D3D0;stroke-width:1.0;" x1="247" x2="247" y1="294.5088" y2="314.5088"/><polygon fill="#D9D3D0" points="243,304.5088,247,314.5088,251,304.5088,247,308.5088" style="stroke:#D9D3D0;stroke-width:1.0;"/><line style="stroke:#D9D3D0;stroke-width:1.0;" x1="247" x2="247" y1="348.4775" y2="389.8765"/><polygon fill="#D9D3D0" points="243,379.8765,247,389.8765,251,379.8765,247,383.8765" style="stroke:#D9D3D0;stroke-width:1.0;"/><text fill="#D9D3D0" font-family="Verdana" font-size="11" lengthAdjust="spacing" textLength="135" x="251" y="369.7822">Version bump detected</text><line style="stroke:#D9D3D0;stroke-width:1.0;" x1="247" x2="247" y1="423.8452" y2="465.2441"/><polygon fill="#D9D3D0" points="243,455.2441,247,465.2441,251,455.2441,247,459.2441" style="stroke:#D9D3D0;stroke-width:1.0;"/><text fill="#D9D3D0" font-family="Verdana" font-size="11" lengthAdjust="spacing" textLength="79" x="251" y="445.1499">Version bump</text><line style="stroke:#D9D3D0;stroke-width:1.0;" x1="148" x2="148" y1="546.6118" y2="566.6118"/><polygon fill="#D9D3D0" points="144,556.6118,148,566.6118,152,556.6118,148,560.6118" style="stroke:#D9D3D0;stroke-width:1.0;"/><line style="stroke:#D9D3D0;stroke-width:1.0;" x1="354.5" x2="354.5" y1="546.6118" y2="566.6118"/><polygon fill="#D9D3D0" points="350.5,556.6118,354.5,566.6118,358.5,556.6118,354.5,560.6118" style="stroke:#D9D3D0;stroke-width:1.0;"/><line style="stroke:#D9D3D0;stroke-width:1.0;" x1="148" x2="148" y1="600.5806" y2="620.5806"/><polygon fill="#D9D3D0" points="144,610.5806,148,620.5806,152,610.5806,148,614.5806" style="stroke:#D9D3D0;stroke-width:1.0;"/><line style="stroke:#D9D3D0;stroke-width:1.0;" x1="354.5" x2="354.5" y1="600.5806" y2="620.5806"/><polygon fill="#D9D3D0" points="350.5,610.5806,354.5,620.5806,358.5,610.5806,354.5,614.5806" style="stroke:#D9D3D0;stroke-width:1.0;"/><line style="stroke:#D9D3D0;stroke-width:1.0;" x1="247" x2="247" y1="499.2129" y2="540.6118"/><polygon fill="#D9D3D0" points="243,530.6118,247,540.6118,251,530.6118,247,534.6118" style="stroke:#D9D3D0;stroke-width:1.0;"/><text fill="#D9D3D0" font-family="Verdana" font-size="11" lengthAdjust="spacing" textLength="82" x="251" y="520.5176">release event</text><line style="stroke:#D9D3D0;stroke-width:1.0;" x1="247" x2="247" y1="626.5806" y2="646.5806"/><polygon fill="#D9D3D0" points="243,636.5806,247,646.5806,251,636.5806,247,640.5806" style="stroke:#D9D3D0;stroke-width:1.0;"/><!--SRC=[ZP6zJWGn38JxF8Lfk8eNs9KeW184Eg7hiybm6v4_9Surftjtl3-mGe14w_ayex6lU4G03RuX5nTPLTQ5LMTI28w94prf5tjrSqkvrP5mGkHUTS_5ZAXSDASogqPxx-AnLs-flAjktoAz2Y0ZoYv3DCnSRSQWreKZVHJtXNwKzF_JTyrv-mUBQ6dcpphQoyBluQ4hlcySKAfBaOOMCbam3CDAkVklyhiWYRiVi32huIoLrNmzpdQ1XsHQa9dcQNFB_htDDRrC9zwmpoBob9G_0000]--></g></svg>